<?xml version="1.0" encoding="UTF-8" standalone="no"?>
<!-- Created with Inkscape (http://www.inkscape.org/) -->

<svg
   width="1352.5664mm"
   height="179.80225mm"
   viewBox="0 0 1352.5664 179.80224"
   version="1.1"
   id="svg1"
   xml:space="preserve"
   sodipodi:docname="Opción 2 larga.svg"
   inkscape:version="1.4.2 (ebf0e94, 2025-05-08)"
   xmlns:inkscape="http://www.inkscape.org/namespaces/inkscape"
   xmlns:sodipodi="http://sodipodi.sourceforge.net/DTD/sodipodi-0.dtd"
   xmlns:xlink="http://www.w3.org/1999/xlink"
   xmlns="http://www.w3.org/2000/svg"
   xmlns:svg="http://www.w3.org/2000/svg"><sodipodi:namedview
     id="namedview1"
     pagecolor="#ffffff"
     bordercolor="#000000"
     borderopacity="0.25"
     inkscape:showpageshadow="2"
     inkscape:pageopacity="0.0"
     inkscape:pagecheckerboard="0"
     inkscape:deskcolor="#d1d1d1"
     inkscape:document-units="mm"
     inkscape:zoom="0.13234199"
     inkscape:cx="3853.6523"
     inkscape:cy="449.59277"
     inkscape:window-width="1850"
     inkscape:window-height="1016"
     inkscape:window-x="1990"
     inkscape:window-y="138"
     inkscape:window-maximized="1"
     inkscape:current-layer="layer1" /><defs
     id="defs1"><linearGradient
       id="linearGradient235"><stop
         style="stop-color:#550000;stop-opacity:1"
         offset="0"
         id="stop235" /><stop
         style="stop-color:#aa0000;stop-opacity:1"
         offset="1"
         id="stop236" /></linearGradient><linearGradient
       xlink:href="#linearGradient235"
       id="linearGradient56"
       gradientUnits="userSpaceOnUse"
       x1="1358.2213"
       y1="605.23267"
       x2="1359.7947"
       y2="706.71417"
       gradientTransform="matrix(2.5413682,0,0,2.5413682,-729.85668,-2121.7247)" /><linearGradient
       xlink:href="#linearGradient235"
       id="linearGradient57"
       gradientUnits="userSpaceOnUse"
       x1="1498.6797"
       y1="561.77374"
       x2="1502.708"
       y2="669.07465"
       gradientTransform="translate(1235.5444,-584.3307)" /><linearGradient
       xlink:href="#linearGradient235"
       id="linearGradient58"
       gradientUnits="userSpaceOnUse"
       x1="1498.6797"
       y1="561.77374"
       x2="1502.708"
       y2="669.07465"
       gradientTransform="translate(1235.5444,-584.3307)" /><linearGradient
       xlink:href="#linearGradient235"
       id="linearGradient59"
       gradientUnits="userSpaceOnUse"
       x1="1498.6797"
       y1="561.77374"
       x2="1502.708"
       y2="669.07465"
       gradientTransform="translate(1235.5444,-584.3307)" /><linearGradient
       inkscape:collect="always"
       xlink:href="#linearGradient235"
       id="linearGradient1"
       x1="2896.0518"
       y1="-53.699345"
       x2="2897.6472"
       y2="49.203846"
       gradientUnits="userSpaceOnUse" /></defs><g
     id="layer1"
     transform="translate(-2074.1303,575.60865)"><path
       style="fill:url(#linearGradient56);fill-opacity:1;stroke-width:2.54137"
       d="m 3010.5327,-449.35824 c -19.0608,-3.68786 -22.3725,-10.04801 -22.867,-43.91724 -0.4157,-28.48439 -0.5743,-27.89567 7.6236,-28.2853 8.4869,-0.40334 8.1276,-1.40106 8.1276,22.56883 0,32.62196 2.9769,37.74884 20.5645,35.4158 11.4206,-1.51502 12.3459,-3.92431 12.3459,-32.14127 0,-26.34017 -0.097,-26.02125 7.9924,-26.02125 8.5431,0 8.2063,-1.21455 7.8661,28.37455 l -0.2925,25.43867 -2.5026,5.09633 c -5.2756,10.74336 -22.3543,16.664 -38.858,13.47088 z m 310.7679,-0.69927 c -29.6392,-7.19295 -33.2119,-57.11653 -5.0189,-70.13415 9.9108,-4.57612 32.149,-2.35542 34.0484,3.40004 2.6556,8.04617 -0.2976,10.7137 -10.2253,9.23666 -19.8635,-2.95516 -28.7542,6.89259 -25.3668,28.09701 2.0982,13.13402 6.7599,16.1111 23.7491,15.16716 l 10.9465,-0.6082 0.956,2.4894 c 4.0393,10.5203 -10.7536,16.80183 -29.089,12.35208 z m 61.3737,0.057 c -19.8048,-5.05381 -29.5504,-29.96687 -20.8259,-53.23843 10.0984,-26.9353 52.2541,-25.98778 61.9667,1.39282 11.0795,31.23469 -11.3152,59.45656 -41.1408,51.84561 z m 17.9873,-14.73032 c 10.7684,-4.89033 11.5072,-35.51275 1.0107,-41.89605 -9.4271,-5.73306 -21.3784,-1.48539 -24.3234,8.64499 -6.7041,23.06108 5.9641,41.12968 23.3127,33.25106 z m -556.4607,13.26078 c -1.7068,-1.70673 -1.7787,-2.9614 -1.7742,-30.90924 0,-37.85396 0.2161,-38.56727 11.4885,-39.20426 11.4604,-0.64756 12.8841,1.04699 26.2646,31.25887 11.9068,26.88481 11.1632,27.0682 11.1632,-2.75277 0,-29.31097 -0.1804,-28.66109 8.0053,-28.66109 8.2821,0 8.0061,-1.11936 8.0003,32.44137 0,37.74214 -0.4739,39.16134 -12.8988,39.16134 -11.411,0 -12.6451,-1.75911 -30.4208,-43.36189 -6.2397,-14.60286 -6.4859,-13.98718 -6.4859,16.2016 0,29.22065 0.4388,27.60503 -7.5021,27.60503 -2.8753,0 -4.5806,-0.51951 -5.8401,-1.77896 z m 88.3026,0.91533 c -9.8033,-2.32914 -10.4737,-4.60811 -10.4737,-35.60485 0,-36.33446 -1.089,-35.00707 29.0453,-35.40363 23.2413,-0.30587 22.989,-0.37273 22.989,6.09634 0,6.90203 -0.4235,7.07041 -17.7801,7.07041 -18.9837,0 -17.7989,-0.53922 -17.7989,8.10044 v 7.02066 h 13.1443 c 15.8886,0 17.0981,0.49427 17.0981,6.98833 0,6.26391 -0.2288,6.35378 -16.2232,6.35378 h -14.0883 l 0.257,7.78291 0.2569,7.7829 17.203,0.44473 17.2031,0.44474 1.7875,2.20995 c 2.1572,2.66722 1.7427,8.62903 -0.7255,10.43386 -1.7535,1.2821 -36.6936,1.51514 -41.8945,0.27943 z m 136.7882,-0.69308 -1.9226,-1.55672 0.2674,-30.28309 c 0.3019,-34.20021 0.2109,-33.7405 7.2302,-36.927 8.509,-3.86346 34.8874,-1.87725 42.6078,3.20824 11.7446,7.73633 9.2427,30.98272 -3.735,34.70471 -4.3555,1.2491 -4.2899,1.52608 3.5177,14.88011 9.2831,15.87763 9.1802,17.6031 -1.0409,17.46794 -7.491,-0.0991 -7.703,-0.30718 -15.4139,-15.13708 l -7.1281,-13.70833 -5.1023,-0.26678 -5.1023,-0.26674 v 12.94177 c 0,11.75581 -0.1626,13.10479 -1.779,14.72072 -2.337,2.33692 -9.6261,2.46758 -12.399,0.22212 z m 36.3535,-42.7322 c 10.492,-7.80983 -5.9542,-19.92048 -19.7294,-14.52845 l -2.4461,0.95747 v 8.16054 8.16053 l 9.9454,-0.52466 c 7.836,-0.41338 10.43,-0.88539 12.2301,-2.22543 z m 30.0812,43.37956 c -2.6754,-1.64645 -1.0316,-8.64289 11.4885,-48.90125 6.0276,-19.38193 9.6402,-23.12634 22.3109,-23.12634 11.8514,0 15.8057,3.92024 21.0847,20.90266 16.6708,53.63069 16.4904,52.03428 5.8809,52.03428 -5.9452,0 -7.1513,-1.33816 -9.8381,-10.91698 l -2.1769,-7.762 h -15.2345 -15.2342 l -1.9744,7.4734 c -2.7432,10.38406 -9.368,14.56687 -16.3069,10.29623 z m 44.696,-31.80695 c 0,-7.28326 -8.1057,-26.87853 -11.1185,-26.87853 -3.0853,0 -10.9998,19.1699 -11.1091,26.90663 0,0.3669 4.9941,0.66711 11.1091,0.66711 6.1151,0 11.1185,-0.31287 11.1185,-0.69521 z m 44.7184,31.85267 c -9.9946,-2.37461 -10.4185,-3.87615 -10.7619,-38.1066 -0.3439,-34.30474 -0.6483,-33.07722 8.205,-33.07722 8.4275,0 8.0216,-1.41293 8.5385,29.70986 l 0.4447,26.77178 14.9794,0.44475 c 17.0785,0.50705 18.3759,1.07921 18.3759,8.10381 0,6.57129 -23.0299,10.13368 -39.7816,6.15362 z"
       id="path230-9" /><g
       id="g59"
       transform="matrix(2.5062576,0,0,2.5062576,-4536.3678,-449.02122)"
       style="fill-opacity:1;fill:url(#linearGradient1)"><path
         style="fill:url(#linearGradient1);fill-opacity:1.0;stroke-width:1.32283"
         d="m 2641.9839,15.426226 c -9.4372,-9.4372296 -2.6693,-24.5618596 10.9909,-24.5618596 6.0418,0 13.571,7.98272 13.571,14.38832 0,12.2599796 -15.8926,18.8427396 -24.5619,10.1735396 z m 42.2538,1.41704 c -2.2197,-1.80231 -4.3056,-6.57455 -5.8629,-13.4128396 -3.5907,-15.7670904 -14.5435,-25.3114204 -29.0877,-25.3467504 -10.8423,-0.0263 -15.2839,-15.6732 -6.8447,-24.11242 8.543,-8.543 21.3572,-4.27541 23.3793,7.78608 2.8896,17.2372 11.2057,26.66788 25.1469,28.5172204 11.0702,1.46854 16.2715,6.25633 16.2715,14.97813 0,11.9207596 -13.9432,18.9465396 -23.0024,11.5905796 z m -0.9782,-42.6926 c -5.9263,-5.92627 -5.4777,-15.26752 0.9948,-20.71367 7.6807,-6.46292 16.9996,-4.77014 21.4846,3.90265 7.3349,14.18413 -11.2257,28.0646 -22.4794,16.81102 z"
         id="path35-4" /><path
         style="fill:url(#linearGradient1);fill-opacity:1.0;stroke-width:1.32283"
         d="m 2727.5389,17.889036 c -8.5796,-4.65932 -8.9083,-16.2378196 -0.6784,-23.8936396 5.2007,-4.8379504 5.3016,-11.2303004 0.2521,-15.9632604 -16.3339,-15.30967 2.4962,-35.63623 19.1089,-20.62761 7.4837,6.76098 9.1847,6.76098 17.2771,0 11.7443,-9.81216 24.8329,-5.42287 24.8329,8.32782 0,13.52357 -15.0132,18.2387 -25.5512,8.02479 -7.5272,-7.29557 -17.2564,-4.15086 -23.2076,7.50118 -6.3814,12.4944804 13.1316,26.0670304 23.7215,16.4997604 11.1613,-10.0835404 25.0373,-5.46813 25.0373,8.32782 0,14.4499696 -16.3007,18.4173496 -27.0172,6.5756496 -4.2304,-4.6744696 -9.0029,-4.0447796 -16.4405,2.16919 -7.0335,5.87636 -10.8923,6.55713 -17.3349,3.0583 z"
         id="path36-7" /><path
         style="fill:url(#linearGradient1);fill-opacity:1.0;stroke-width:1.32283"
         d="m 2811.1723,20.099656 c -4.3228,-1.7487 -8.2139,-7.60108 -8.2139,-12.3537996 0,-13.73294 14.3325,-19.7774504 23.9918,-10.11815 7.868,7.86805 11.7796,8.02345 19.2527,0.76485 12.0501,-11.7043304 30.2184,-0.85384 23.8982,14.2724796 -4.0245,9.63234 -21.2643,11.2877 -24.6862,2.37038 -2.1972,-5.7255396 -10.2751,-6.0566796 -16.1848,-0.66349 -7.4154,6.76709 -11.9407,8.20241 -18.0578,5.72773 z m 42.2525,-39.95539 c -1.7786,-0.52552 -5.2662,-2.89822 -7.7506,-5.27266 -6.8077,-6.50661 -13.8089,-6.6318 -17.1935,-0.30744 -4.2065,7.85972 -19.6014,7.23614 -23.8427,-0.96578 -8.1675,-15.79411 10.2827,-27.72196 23.605,-15.26045 7.2626,6.79337 12.4991,6.64406 17.6871,-0.5043 5.9226,-8.16037 20.2152,-6.2689 24.171,3.19877 2.9018,6.94482 -1.1455,16.77417 -7.6785,18.64809 -4.7264,1.35573 -5.7933,1.41072 -8.9978,0.46377 z"
         id="path37-8" /></g></g></svg>
